<?xml version="1.0" encoding="utf-8"?>
<!-- Generator: Adobe Illustrator 25.4.1, SVG Export Plug-In . SVG Version: 6.00 Build 0)  -->
<svg version="1.1" id="Capa_1" xmlns="http://www.w3.org/2000/svg" xmlns:xlink="http://www.w3.org/1999/xlink" x="0px" y="0px"
	 viewBox="0 0 800 533" style="enable-background:new 0 0 800 533;" xml:space="preserve">
<style type="text/css">
	.st0{fill:#FFFFFF;}
	.st1{fill:url(#SVGID_1_);}
	.st2{fill:none;stroke:#000000;stroke-linecap:round;stroke-miterlimit:10;}
	.st3{fill:none;stroke:#000000;stroke-width:0.5;stroke-linecap:round;stroke-miterlimit:10;}
	.st4{fill:none;stroke:#000000;stroke-width:0.75;stroke-linecap:round;stroke-miterlimit:10;}
	.st5{opacity:0.6;fill:#C69C6D;enable-background:new    ;}
	.st6{fill:none;stroke:#000000;stroke-width:0.5;stroke-miterlimit:10;}
	.st7{fill:#FFFFFF;stroke:#000000;stroke-width:0.5;stroke-miterlimit:10;}
	.st8{fill:none;stroke:#000000;stroke-miterlimit:10;}
	.st9{fill:none;stroke:#000000;stroke-linecap:round;stroke-linejoin:round;}
	
		.st10{fill:#FFFFFF;stroke:url(#SVGID_00000124132992575652181340000016274159725708464258_);stroke-width:0.5;stroke-miterlimit:10;}
	.st11{fill:#FFFFFF;stroke:#000000;stroke-width:0.25;stroke-miterlimit:10;}
	.st12{fill:none;}
	.st13{fill:url(#SVGID_00000156557110678478803290000015707373943100428721_);}
	.st14{fill:none;stroke:#000000;stroke-width:0.6414;stroke-linecap:round;stroke-miterlimit:10;}
	.st15{fill:none;stroke:#000000;stroke-width:0.3207;stroke-linecap:round;stroke-miterlimit:10;}
	.st16{fill:none;stroke:#000000;stroke-width:0.4811;stroke-linecap:round;stroke-miterlimit:10;}
	.st17{fill:none;stroke:#000000;stroke-width:0.3207;stroke-miterlimit:10;}
	.st18{fill:#FFFFFF;stroke:#000000;stroke-width:0.3207;stroke-miterlimit:10;}
	.st19{fill:none;stroke:#000000;stroke-width:0.6414;stroke-miterlimit:10;}
	.st20{fill:none;stroke:#000000;stroke-width:0.6414;stroke-linecap:round;stroke-linejoin:round;}
	.st21{fill:#FFFFFF;stroke:#000000;stroke-width:0.1604;stroke-miterlimit:10;}
</style>
<linearGradient id="SVGID_1_" gradientUnits="userSpaceOnUse" x1="-307.4016" y1="1004.2916" x2="-52.2426" y2="1004.2916" gradientTransform="matrix(6.123234e-17 1 1 -6.123234e-17 -604.2916 307.4016)">
	<stop  offset="0.17" style="stop-color:#8B6339"/>
	<stop  offset="0.52" style="stop-color:#C0AB94"/>
	<stop  offset="0.85" style="stop-color:#EDE7E1"/>
	<stop  offset="1" style="stop-color:#FFFFFF"/>
</linearGradient>
<rect class="st1" width="800" height="283.2"/>
<path d="M290.6,340.3c0.7,0,1.5,0.1,2.1,0.4c0.6,0.3,1.2,0.6,1.6,1c0.4,0.4,0.8,1,1,1.5c0.3,0.6,0.4,1.2,0.4,1.9
	c0,1-0.2,1.9-0.6,2.7c-0.5,0.8-1.2,1.4-2.1,1.7v0.1c0.4,0.1,0.8,0.3,1.2,0.6c0.3,0.3,0.6,0.6,0.8,1c0.2,0.4,0.3,0.8,0.4,1.2
	c0.1,0.4,0.1,0.9,0.2,1.3c0,0.3,0,0.6,0.1,1c0.1,0.4,0.1,0.8,0.1,1.2c0.1,0.4,0.1,0.8,0.2,1.1s0.2,0.6,0.4,0.9h-3.8
	c-0.3-0.6-0.4-1.3-0.4-2c-0.1-0.8-0.1-1.5-0.3-2.2c-0.1-0.8-0.3-1.5-0.8-2c-0.6-0.4-1.3-0.7-2.1-0.6H285v6.9h-3.8v-17.5L290.6,340.3
	L290.6,340.3z M289.2,348.3c0.7,0.1,1.4-0.2,2-0.6c0.5-0.5,0.7-1.2,0.6-1.9c0.1-0.7-0.2-1.3-0.6-1.9c-0.6-0.4-1.3-0.6-2-0.6H285v5
	L289.2,348.3L289.2,348.3z"/>
<path d="M312,340.3v3.3h-9.2v3.7h8.5v3h-8.5v4.3h9.4v3.3h-13.3v-17.5L312,340.3L312,340.3z"/>
<path d="M322.3,340.3c1.1,0,2.1,0.2,3.1,0.5c1,0.3,1.8,0.9,2.5,1.6c0.8,0.8,1.3,1.7,1.7,2.7c0.4,1.2,0.6,2.5,0.6,3.8
	c0,1.2-0.1,2.4-0.5,3.5c-0.3,1-0.8,2-1.5,2.8c-0.7,0.8-1.5,1.4-2.5,1.9c-1.1,0.4-2.3,0.7-3.5,0.7h-7.6v-17.5L322.3,340.3
	L322.3,340.3z M322.1,354.6c0.6,0,1.1-0.1,1.6-0.3c0.5-0.2,1-0.5,1.4-0.9c0.4-0.4,0.8-1,1-1.6c0.3-0.8,0.4-1.6,0.4-2.4
	c0-0.8-0.1-1.6-0.3-2.4c-0.1-0.6-0.4-1.3-0.8-1.8c-0.4-0.5-1-0.9-1.5-1.2c-0.8-0.3-1.6-0.4-2.4-0.4h-2.8v11h3.4L322.1,354.6
	L322.1,354.6z"/>
<path d="M346,340.3v3.3h-9.2v3.7h8.5v3h-8.5v4.3h9.4v3.3h-13.3v-17.5L346,340.3L346,340.3z"/>
<path d="M351.8,353.6c0.2,0.4,0.5,0.7,0.8,1c0.4,0.3,0.8,0.4,1.2,0.6c0.5,0.1,1,0.2,1.5,0.2c0.4,0,0.8-0.1,1.1-0.1
	c0.4-0.1,0.8-0.2,1.1-0.3c0.3-0.1,0.6-0.4,0.8-0.7c0.3-0.3,0.4-0.7,0.3-1.1c0-0.4-0.1-0.8-0.4-1.2c-0.3-0.3-0.8-0.6-1.2-0.8
	c-0.6-0.2-1.1-0.4-1.7-0.5c-0.6-0.1-1.3-0.3-1.9-0.5c-0.6-0.2-1.3-0.4-1.9-0.6c-0.6-0.2-1.2-0.5-1.7-0.9c-1.1-0.8-1.7-2.1-1.7-3.5
	c0-0.8,0.2-1.6,0.6-2.4c0.4-0.6,0.9-1.2,1.5-1.7c0.6-0.4,1.3-0.8,2.1-1c0.8-0.2,1.5-0.3,2.4-0.3c0.9,0,1.8,0.1,2.6,0.3
	c0.8,0.2,1.6,0.5,2.3,1c0.6,0.4,1.2,1,1.5,1.7c0.4,0.8,0.6,1.7,0.6,2.6h-3.7c0-0.4-0.1-0.9-0.3-1.3c-0.2-0.3-0.4-0.6-0.8-0.8
	c-0.3-0.2-0.7-0.3-1.1-0.4c-0.4-0.1-0.8-0.1-1.3-0.1c-0.3,0-0.6,0.1-1,0.1c-0.3,0.1-0.6,0.2-0.8,0.3c-0.3,0.2-0.4,0.4-0.6,0.6
	c-0.2,0.3-0.3,0.6-0.3,1c0,0.3,0.1,0.6,0.2,0.8c0.2,0.3,0.4,0.4,0.8,0.6c0.5,0.3,1,0.4,1.6,0.5c0.7,0.2,1.6,0.4,2.7,0.7
	c0.3,0.1,0.8,0.2,1.3,0.3c0.6,0.2,1.2,0.4,1.7,0.8c0.6,0.4,1.1,0.9,1.5,1.5c0.4,0.7,0.6,1.5,0.6,2.4c0,0.8-0.1,1.5-0.4,2.2
	c-0.3,0.7-0.8,1.3-1.4,1.8c-0.7,0.5-1.5,1-2.3,1.2c-1,0.3-2.1,0.4-3.1,0.4c-1,0-1.9-0.1-2.8-0.3c-0.8-0.2-1.7-0.6-2.4-1.2
	c-0.7-0.5-1.3-1.2-1.7-1.9c-0.4-0.9-0.6-1.9-0.6-2.8h3.7C351.5,352.6,351.6,353.1,351.8,353.6z"/>
<path class="st14" d="M213,141.4c0,0,18.2,16.9,30.7-15.7"/>
<line class="st15" x1="212" y1="140.4" x2="213.5" y2="142"/>
<polygon points="211.7,142.1 212.3,140.7 213.8,140.2 210.5,138.7 "/>
<path class="st16" d="M363.6,134c0,0,19,7.7,28.9,30.1"/>
<line class="st15" x1="393" y1="165" x2="392.5" y2="164.1"/>
<polygon points="393.7,163.3 392.7,164.5 391.2,164.7 394.2,167 "/>
<path class="st5" d="M351.2,359.4h-75c0,0-47-0.1-53.4,1.4c0,0-53.8,3.7-58,5.8c0,0,12.9,0.7,10.8,5.1c0,0-1.4,8-22.2,8.8
	c0,0-35.2,2.2-53,10.3c0,0-28,4.4-28.7,12.4c0,0-1.4,2.2,0.7,3.7c0,0,20.1-1.5,20.8,6.6c0,0,2.9,4.4,10,3.7c0,0,53-1.5,69.5,24.9
	c0,0,0,3,3.6,1.5c0,0,15.1-4.4,30.1,5.8c0,0,18.7-5.1,30.1,0.7c0,0,41.6-9.5,78.8,6.6c0,0,16.5,8.8,5.7,23.4c0,0,36.5,9.4,11.2,38.2
	c-4.7,5.3-12.6,7.8-22,14.8l487.9-0.7v-44.3c0-28.5-71.3-54.1-107.1-60c0,0-51.6-9.5-71.7-26.3c0,0-30.1,3-46.6-5.1
	c0,0-31.6,0-43.7-7.3c0,0-79.5-4.4-115.4-12.4c0,0-36.6,2.2-60.9-8c0,0-10-4.4-1.4-8C351.1,360.8,356.2,359.4,351.2,359.4z"/>
<path class="st17" d="M154.5,284.3c0,0,5.6-22.2,23.2-28c0,0,12.4,0.7,19-1.5c0,0,10.3-6.6,20.5-6.6c0,0,65.8-31.4,90.7-30
	c0,0,85.6,1.5,115.6,16.8c0,0,17.6,11,21.9,11c0,0,18,1.9,16.5,4.9"/>
<circle class="st18" cx="70" cy="72.2" r="52.6"/>
<path class="st14" d="M272.7,426.5c0,0-15.6-32.9-48.4-7.4"/>
<path class="st14" d="M203.6,415.6c0,0-10.5-1.8-17.6-13.8"/>
<line class="st15" x1="186.1" y1="401.4" x2="187.8" y2="404.7"/>
<polygon points="185.3,403.1 186.3,401.8 187.8,401.7 185,399.4 "/>
<path class="st14" d="M293.9,428.6c0,0,4-4,10.4,2.1"/>
<line class="st15" x1="304.3" y1="430.5" x2="301.1" y2="428.5"/>
<polygon points="304.1,428.7 303.9,430.2 302.6,431.1 306.3,431.6 "/>
<path class="st14" d="M158.8,223.4c0,0-0.1,7.1-6.3,10.6c-8.5,4.9-7.6,12.3-7.6,12.3"/>
<line class="st15" x1="158.8" y1="223.2" x2="158.7" y2="224.7"/>
<polygon points="157.3,224.2 158.8,223.7 160.1,224.4 159,221 "/>
<line class="st15" x1="145.5" y1="247.8" x2="144.9" y2="246.3"/>
<polygon points="146.4,246.3 145.3,247.5 143.8,247.4 146.4,250 "/>
<path class="st16" d="M167.6,187.9c0,0,0-17.9,16.9-24.9"/>
<line class="st15" x1="167.5" y1="188" x2="167.6" y2="185.9"/>
<polygon points="169,187 167.5,187.5 166.1,186.8 167.4,190.3 "/>
<line class="st15" x1="185.8" y1="162.1" x2="184.4" y2="163"/>
<polygon points="184.1,161.6 185.4,162.3 185.7,163.9 187.7,160.7 "/>
<path d="M65.2,272.6c0.7,0,1.5,0.1,2.1,0.4c0.6,0.3,1.2,0.6,1.6,1c0.4,0.4,0.8,1,1,1.5c0.3,0.6,0.4,1.2,0.4,1.9c0,1-0.2,1.9-0.6,2.7
	c-0.5,0.8-1.2,1.4-2.1,1.7v0.1c0.4,0.1,0.8,0.3,1.2,0.6c0.3,0.3,0.6,0.6,0.8,1c0.2,0.4,0.3,0.8,0.4,1.2c0.1,0.4,0.1,0.9,0.2,1.3
	c0,0.3,0,0.6,0.1,1c0.1,0.4,0.1,0.8,0.1,1.2c0.1,0.4,0.1,0.8,0.2,1.1c0.1,0.3,0.2,0.6,0.4,0.9H67c-0.3-0.6-0.4-1.3-0.4-2
	c-0.1-0.8-0.1-1.5-0.2-2.2c-0.1-0.8-0.3-1.5-0.8-2c-0.6-0.4-1.3-0.7-2.1-0.6h-3.8v6.9h-3.8v-17.5H65.2z M63.8,280.6
	c0.7,0.1,1.4-0.1,2-0.6c0.5-0.5,0.7-1.2,0.6-1.9c0.1-0.7-0.2-1.3-0.6-1.9c-0.6-0.4-1.3-0.6-2-0.6h-4.2v4.9L63.8,280.6z"/>
<path d="M86.6,272.6v3.2h-9.2v3.8h8.5v3h-8.5v4.3h9.4v3.3H73.4v-17.6H86.6z"/>
<path d="M93.3,272.6v14.3h8.5v3.3H89.4v-17.6H93.3z"/>
<path d="M112.7,272.6l6.5,17.5h-4l-1.3-3.9h-6.5l-1.3,3.9h-3.9l6.6-17.5H112.7z M112.9,283.4l-2.2-6.4h-0.1l-2.3,6.4H112.9z"/>
<path d="M117.1,275.8v-3.2h14.4v3.2h-5.3v14.3h-3.8v-14.3H117.1z"/>
<path d="M133.4,277.7c0.4-1.1,1-2.1,1.7-3c0.8-0.8,1.7-1.5,2.7-2c2.3-1,4.9-1,7.2,0c1,0.4,1.9,1.1,2.7,2c0.8,0.8,1.3,1.9,1.7,3
	c0.4,1.2,0.6,2.4,0.6,3.7c0,1.2-0.2,2.4-0.6,3.6c-0.4,1.1-1,2.1-1.7,2.9c-0.8,0.8-1.7,1.5-2.7,1.9c-2.3,1-4.9,1-7.2,0
	c-1-0.4-2-1.1-2.7-1.9c-0.8-0.8-1.3-1.8-1.7-2.9c-0.4-1.2-0.6-2.4-0.6-3.6C132.8,280.2,133,279,133.4,277.7z M136.9,283.5
	c0.2,0.6,0.4,1.3,0.8,1.9c0.4,0.6,0.9,1,1.5,1.3c1.4,0.6,3,0.6,4.4,0c0.6-0.3,1.1-0.8,1.5-1.3c0.4-0.6,0.6-1.2,0.8-1.9
	c0.2-0.7,0.3-1.4,0.3-2.1c0-0.8-0.1-1.5-0.3-2.2c-0.1-0.7-0.4-1.3-0.8-1.9c-0.4-0.6-0.9-1-1.5-1.3c-1.4-0.7-3-0.7-4.4,0
	c-0.6,0.3-1.1,0.8-1.5,1.3c-0.4,0.6-0.6,1.2-0.8,1.9c-0.2,0.7-0.3,1.5-0.3,2.2C136.6,282.1,136.7,282.9,136.9,283.5L136.9,283.5z"/>
<path d="M155.6,285.8c0.2,0.4,0.5,0.7,0.8,1c0.4,0.3,0.8,0.4,1.2,0.6c0.5,0.1,1,0.2,1.5,0.2c0.4,0,0.8-0.1,1.1-0.1
	c0.4-0.1,0.8-0.2,1.1-0.3c0.3-0.1,0.6-0.4,0.8-0.7c0.3-0.3,0.4-0.7,0.3-1.1c0-0.4-0.1-0.8-0.4-1.2s-0.8-0.6-1.2-0.8
	c-0.5-0.2-1.1-0.4-1.7-0.5c-0.6-0.1-1.2-0.3-1.9-0.5c-0.6-0.2-1.3-0.4-1.9-0.6c-0.6-0.2-1.2-0.5-1.7-0.9c-0.5-0.4-0.9-0.8-1.2-1.4
	c-0.3-0.6-0.4-1.3-0.4-2.1c0-0.8,0.2-1.6,0.6-2.4c0.4-0.6,0.9-1.2,1.5-1.7c0.6-0.4,1.3-0.8,2.1-1c0.8-0.2,1.5-0.3,2.4-0.3
	c0.9,0,1.8,0.1,2.6,0.3c0.8,0.2,1.5,0.5,2.2,1c0.6,0.4,1.2,1,1.5,1.7c0.4,0.8,0.6,1.7,0.6,2.6h-3.7c0-0.4-0.1-0.9-0.3-1.3
	c-0.2-0.3-0.4-0.6-0.8-0.8s-0.7-0.3-1.1-0.4c-0.4-0.1-0.9-0.1-1.3-0.1c-0.3,0-0.6,0.1-0.9,0.1c-0.3,0.1-0.6,0.2-0.8,0.3
	c-0.3,0.2-0.4,0.4-0.6,0.6s-0.3,0.6-0.3,1c0,0.3,0.1,0.6,0.2,0.8c0.2,0.3,0.4,0.4,0.8,0.6c0.5,0.3,1,0.4,1.6,0.5
	c0.7,0.2,1.5,0.4,2.6,0.7c0.3,0.1,0.8,0.2,1.3,0.3c0.6,0.2,1.2,0.4,1.8,0.8c0.6,0.4,1.1,0.9,1.5,1.5c0.4,0.7,0.6,1.5,0.6,2.4
	c0,0.8-0.1,1.5-0.4,2.2c-0.3,0.7-0.8,1.3-1.4,1.8c-0.7,0.5-1.5,0.9-2.3,1.2c-1,0.3-2.1,0.4-3.1,0.4c-1,0-1.9-0.1-2.8-0.4
	c-0.8-0.2-1.7-0.6-2.4-1.1c-0.7-0.5-1.3-1.2-1.7-1.9c-0.4-0.9-0.6-1.9-0.6-2.8h3.7C155.3,284.8,155.4,285.3,155.6,285.8z"/>
<path d="M48.4,302v3.3h-9.2v3.8h8.5v3h-8.5v4.3h9.4v3.2H35.3V302H48.4z"/>
<path d="M56.6,302l4.1,12.1h0.1l3.8-12.1H70v17.5h-3.6v-12.4h-0.1l-4.3,12.4h-3l-4.3-12.3h-0.1v12.3h-3.6V302H56.6z"/>
<path d="M86.6,302v3.3h-9.3v3.8h8.5v3h-8.5v4.3h9.4v3.2H73.4V302H86.6z"/>
<path d="M98.8,302c0.7,0,1.5,0.1,2.1,0.4c0.6,0.3,1.2,0.6,1.6,1c0.4,0.4,0.8,1,1,1.5c0.3,0.6,0.4,1.2,0.4,1.9c0,1-0.2,1.9-0.6,2.7
	c-0.5,0.8-1.2,1.4-2.1,1.7v0.1c0.4,0.1,0.8,0.3,1.2,0.6c0.3,0.3,0.6,0.6,0.8,1c0.2,0.4,0.3,0.8,0.4,1.2c0.1,0.4,0.1,0.9,0.2,1.3
	c0,0.3,0.1,0.6,0.1,1c0,0.4,0.1,0.8,0.1,1.2c0.1,0.4,0.1,0.8,0.2,1.1s0.2,0.6,0.4,0.9h-3.8c-0.3-0.6-0.4-1.3-0.4-2
	c-0.1-0.8-0.1-1.5-0.2-2.2c-0.1-0.8-0.3-1.5-0.8-2c-0.6-0.4-1.3-0.7-2.1-0.6h-3.8v6.9h-3.8V302L98.8,302L98.8,302z M97.4,310
	c0.7,0.1,1.4-0.1,2-0.6c0.4-0.5,0.7-1.2,0.6-1.9c0.1-0.7-0.2-1.3-0.6-1.9c-0.6-0.4-1.3-0.6-2-0.6h-4.2v4.9L97.4,310z"/>
<path d="M117.5,319.4c-0.8,0.3-1.7,0.5-2.5,0.5c-1.2,0-2.5-0.2-3.6-0.7c-1-0.4-2-1.1-2.7-1.9c-0.8-0.8-1.3-1.8-1.7-2.9
	c-0.4-1.2-0.6-2.4-0.6-3.6c0-1.2,0.2-2.5,0.6-3.7c0.4-1.1,1-2.1,1.7-3c0.8-0.8,1.7-1.5,2.7-2c1.2-0.5,2.4-0.7,3.6-0.7
	c0.9,0,1.8,0.1,2.6,0.4c0.8,0.3,1.6,0.6,2.3,1.2c1.4,1.1,2.4,2.8,2.5,4.6h-3.8c-0.1-0.9-0.6-1.7-1.3-2.2c-0.7-0.5-1.5-0.8-2.4-0.8
	c-0.8,0-1.5,0.1-2.2,0.5c-0.6,0.3-1.1,0.8-1.5,1.3c-0.4,0.6-0.6,1.2-0.8,1.9c-0.2,0.7-0.3,1.5-0.3,2.2c0,0.7,0.1,1.5,0.3,2.1
	c0.1,0.6,0.4,1.3,0.8,1.9s0.9,1,1.5,1.3c0.7,0.4,1.4,0.5,2.2,0.5c2.1,0.3,3.9-1.3,4.2-3.3c0-0.1,0-0.3,0-0.4h-3.8v-2.9h7.4v9.5h-2.4
	l-0.4-2C119.2,318.4,118.4,319,117.5,319.4z"/>
<path d="M138.9,302v3.3h-9.3v3.8h8.5v3h-8.5v4.3h9.4v3.2h-13.3V302H138.9z"/>
<path d="M145.5,302l7.3,11.7h0.1V302h3.6v17.5h-3.8l-7.3-11.7h-0.1v11.7h-3.6V302H145.5z"/>
<path d="M158.5,305.3V302h14.4v3.3h-5.3v14.3h-3.8v-14.3H158.5z"/>
<path d="M187.9,302v3.3h-9.2v3.8h8.5v3h-8.5v4.3h9.4v3.2h-13.3V302H187.9z"/>
<path d="M193.7,315.3c0.2,0.4,0.5,0.7,0.8,1c0.4,0.3,0.8,0.4,1.2,0.6c0.5,0.1,1,0.2,1.5,0.2c0.4,0,0.8,0,1.1-0.1
	c0.4-0.1,0.8-0.2,1.1-0.3c0.3-0.1,0.6-0.4,0.8-0.6c0.3-0.3,0.4-0.7,0.3-1.1c0-0.4-0.1-0.8-0.4-1.2c-0.3-0.3-0.8-0.6-1.2-0.7
	c-0.5-0.2-1.1-0.4-1.7-0.5c-0.6-0.1-1.3-0.3-1.9-0.5c-0.6-0.2-1.3-0.4-1.9-0.6c-0.6-0.2-1.2-0.5-1.7-0.9c-0.5-0.4-0.9-0.8-1.2-1.4
	c-0.3-0.6-0.4-1.3-0.4-2.1c0-0.8,0.2-1.6,0.6-2.4c0.4-0.6,0.9-1.2,1.5-1.7c0.6-0.4,1.3-0.8,2.1-1c0.8-0.2,1.5-0.3,2.4-0.3
	c0.9,0,1.8,0.1,2.6,0.3c0.8,0.2,1.5,0.5,2.2,1c0.6,0.4,1.2,1,1.5,1.7c0.4,0.8,0.6,1.7,0.6,2.6h-3.5c0-0.4-0.1-0.9-0.3-1.3
	c-0.2-0.3-0.4-0.6-0.8-0.8c-0.3-0.2-0.7-0.3-1.1-0.4c-0.4-0.1-0.9-0.1-1.3-0.1c-0.3,0-0.6,0.1-1,0.1c-0.3,0.1-0.6,0.2-0.8,0.3
	c-0.3,0.2-0.4,0.4-0.6,0.6c-0.2,0.3-0.3,0.6-0.3,1c0,0.3,0.1,0.6,0.2,0.8c0.2,0.3,0.4,0.4,0.8,0.6c0.5,0.3,1,0.4,1.6,0.5
	c0.7,0.2,1.5,0.4,2.6,0.7c0.3,0.1,0.8,0.2,1.3,0.4c0.6,0.2,1.2,0.4,1.7,0.8c0.6,0.4,1.1,0.9,1.5,1.5c0.4,0.7,0.6,1.5,0.6,2.4
	c0,0.8-0.1,1.5-0.4,2.2c-0.3,0.7-0.8,1.3-1.4,1.8c-0.7,0.5-1.5,0.9-2.3,1.2c-1,0.3-2.1,0.4-3.1,0.4c-1,0-1.9-0.1-2.8-0.3
	c-0.8-0.2-1.7-0.6-2.4-1.1c-0.7-0.5-1.3-1.2-1.7-1.9c-0.4-0.9-0.6-1.9-0.6-2.8h3.7C193.4,314.3,193.5,314.8,193.7,315.3z"/>
<path class="st0" d="M273,140l2.8,3.4l0.4,0.4c0.2,0.3,0.5-0.1,0.3-0.3l-2.8-3.4l-0.4-0.4C273.2,139.4,272.8,139.7,273,140z"/>
<path d="M439.7,436.7c0.7,0,1.5,0.1,2.1,0.4c0.6,0.3,1.2,0.6,1.6,1c0.4,0.4,0.8,1,1,1.5c0.3,0.6,0.4,1.2,0.3,1.9
	c0,1-0.2,1.9-0.6,2.7c-0.5,0.8-1.2,1.4-2.1,1.7v0.1c0.4,0.1,0.8,0.3,1.2,0.6c0.3,0.3,0.6,0.6,0.8,1c0.2,0.4,0.3,0.8,0.4,1.2
	c0.1,0.4,0.1,0.9,0.2,1.3c0,0.3,0,0.6,0.1,1c0.1,0.4,0.1,0.8,0.1,1.2c0.1,0.4,0.1,0.8,0.2,1.1s0.2,0.6,0.4,0.9h-3.8
	c-0.3-0.6-0.4-1.3-0.4-2c-0.1-0.8-0.1-1.5-0.2-2.2c-0.1-0.8-0.3-1.5-0.8-2c-0.6-0.4-1.3-0.7-2.1-0.6h-3.8v6.9h-3.8v-17.5
	L439.7,436.7L439.7,436.7z M438.4,444.6c0.7,0.1,1.4-0.1,2-0.6c0.5-0.5,0.7-1.2,0.6-1.9c0.1-0.7-0.2-1.3-0.6-1.9
	c-0.6-0.4-1.3-0.6-2-0.6h-4.2v4.9L438.4,444.6z"/>
<path d="M461.1,436.7v3.3h-9.2v3.7h8.5v3h-8.5v4.3h9.4v3.3H448v-17.5L461.1,436.7L461.1,436.7z"/>
<path d="M467.7,436.7V451h8.5v3.3h-12.4v-17.5L467.7,436.7L467.7,436.7z"/>
<path d="M487.2,436.7l6.5,17.5h-4l-1.3-3.9h-6.5l-1.4,3.9h-3.8l6.6-17.5H487.2z M487.4,447.5l-2.2-6.4h-0.1l-2.3,6.4H487.4z"/>
<path d="M491.7,440v-3.3H506v3.3h-5.3v14.3h-3.8V440H491.7z"/>
<path d="M507.9,441.9c0.4-1.1,1-2.1,1.7-3c0.8-0.8,1.7-1.5,2.7-2c2.3-1,4.9-1,7.2,0c1,0.4,1.9,1.1,2.7,2c0.8,0.8,1.3,1.9,1.7,3
	c0.4,1.2,0.6,2.4,0.6,3.7c0,1.2-0.2,2.4-0.6,3.6c-0.4,1.1-1,2.1-1.7,2.9c-0.8,0.8-1.7,1.5-2.7,1.9c-2.3,1-4.9,1-7.2,0
	c-1-0.4-2-1.1-2.7-1.9c-0.8-0.8-1.3-1.8-1.7-2.9c-0.4-1.2-0.6-2.4-0.6-3.6C507.2,444.3,507.4,443.1,507.9,441.9z M511.4,447.6
	c0.1,0.6,0.4,1.3,0.8,1.9c0.4,0.6,0.9,1,1.5,1.3c1.4,0.6,3,0.6,4.4,0c0.6-0.3,1.1-0.8,1.5-1.3c0.4-0.6,0.6-1.2,0.8-1.9
	c0.2-0.7,0.3-1.4,0.3-2.1c0-0.8-0.1-1.5-0.3-2.2c-0.2-0.7-0.4-1.3-0.8-1.9s-0.9-1-1.5-1.3c-1.4-0.7-3-0.7-4.4,0
	c-0.6,0.3-1.1,0.8-1.5,1.3c-0.4,0.6-0.6,1.2-0.8,1.9c-0.2,0.7-0.3,1.5-0.3,2.2C511.2,446.2,511.2,447,511.4,447.6L511.4,447.6z"/>
<path d="M530.1,449.9c0.2,0.4,0.5,0.7,0.8,1c0.4,0.3,0.8,0.4,1.2,0.6c0.4,0.1,1,0.2,1.5,0.2c0.4,0,0.8-0.1,1.1-0.1
	c0.4-0.1,0.8-0.2,1.1-0.3c0.3-0.1,0.6-0.4,0.8-0.7c0.3-0.3,0.4-0.7,0.3-1.1c0-0.4-0.1-0.8-0.4-1.2c-0.3-0.3-0.8-0.6-1.2-0.8
	c-0.5-0.2-1.1-0.4-1.7-0.5c-0.6-0.1-1.3-0.3-1.9-0.5c-0.6-0.2-1.3-0.4-1.9-0.6c-0.6-0.2-1.2-0.5-1.7-0.9c-1.1-0.8-1.7-2.1-1.7-3.5
	c0-0.8,0.2-1.6,0.6-2.4c0.4-0.6,0.9-1.2,1.5-1.7c0.6-0.4,1.3-0.8,2.1-1s1.5-0.3,2.4-0.3c0.9,0,1.8,0.1,2.6,0.3
	c0.8,0.2,1.5,0.5,2.2,1c0.6,0.4,1.2,1,1.5,1.7c0.4,0.8,0.6,1.7,0.6,2.6h-3.7c0-0.4-0.1-0.9-0.3-1.3c-0.2-0.3-0.4-0.6-0.8-0.8
	c-0.3-0.2-0.7-0.3-1.1-0.4c-0.4-0.1-0.8-0.1-1.3-0.1c-0.3,0-0.6,0.1-1,0.1c-0.3,0.1-0.6,0.2-0.8,0.3c-0.3,0.2-0.4,0.4-0.6,0.6
	c-0.2,0.3-0.3,0.6-0.3,1c0,0.3,0.1,0.6,0.2,0.8c0.2,0.3,0.4,0.4,0.8,0.6c0.5,0.2,1,0.4,1.6,0.5l2.7,0.6c0.3,0.1,0.8,0.2,1.3,0.3
	c0.6,0.2,1.2,0.4,1.7,0.8c0.6,0.4,1.1,0.9,1.5,1.5c0.4,0.7,0.6,1.5,0.6,2.4c0,0.8-0.1,1.5-0.4,2.2c-0.3,0.7-0.8,1.3-1.4,1.8
	c-0.7,0.5-1.5,1-2.3,1.2c-1,0.3-2.1,0.4-3.1,0.4c-1,0-1.9-0.1-2.8-0.3c-0.8-0.2-1.7-0.6-2.4-1.2c-0.7-0.5-1.3-1.2-1.7-1.9
	c-0.4-0.9-0.6-1.9-0.6-2.8h3.7C529.8,448.9,529.9,449.4,530.1,449.9z"/>
<path class="st14" d="M152.9,368.4c0,0-12.1-5.6-18-20.5"/>
<line class="st15" x1="134.5" y1="347.4" x2="135.2" y2="348.9"/>
<polygon points="133.7,349 134.7,347.8 136.2,347.7 133.5,345.3 "/>
<line class="st15" x1="152.6" y1="368.6" x2="151.2" y2="367.5"/>
<polygon points="152.7,366.8 152.2,368.3 150.8,369 154.3,370.1 "/>
<path class="st20" d="M428,164.3c0,0,34.8,26.9,36.8,69.6"/>
<path class="st14" d="M533.5,376.6c0,0-3.7,12,6.3,20.8c2.8,2.3,6.1,3.8,9.7,4.4c4.6,0.8,13.7,4.8,24.7,22.8"/>
<line class="st15" x1="533.6" y1="376.4" x2="533.5" y2="377.4"/>
<polygon points="532.1,377.3 533.5,376.9 534.9,377.7 533.9,374.1 "/>
<line class="st15" x1="574.7" y1="425.3" x2="573.7" y2="423.3"/>
<polygon points="575.4,423.7 574.5,424.8 572.9,424.9 575.7,427.3 "/>
<path class="st14" d="M461.3,310.5c0,0,1.2,35.2,20.6,43.4c0.6,0.3,13,4,14.1,12.1c0.6,3.9,0.1,14.6-9.6,15.9
	c-2.1,0.3-4.7-0.2-5.9-1.9c-1-1.3-1.2-3.8,0.8-6.1c1.9-2,4.8-2.6,7.4-1.7c4,1.5,9.9,6.5,14.3,22.5"/>
<line class="st15" x1="503.6" y1="396.2" x2="502.9" y2="394.6"/>
<polygon points="504.5,394.7 503.4,395.8 501.9,395.7 504.4,398.3 "/>
<line class="st15" x1="468.6" y1="324.4" x2="468.3" y2="326.1"/>
<polygon points="467,325.2 468.6,324.9 469.8,325.8 469.1,322.2 "/>
<line class="st15" x1="464.8" y1="234.3" x2="464.7" y2="232.6"/>
<polygon points="466.2,233.1 464.8,233.8 463.4,233.3 465,236.6 "/>
<line class="st15" x1="427.6" y1="164" x2="428.9" y2="165.2"/>
<polygon points="427.4,165.8 428,164.3 429.4,163.7 425.9,162.5 "/>
<line class="st15" x1="408.5" y1="217.4" x2="408.7" y2="219.1"/>
<polygon points="407.2,218.7 408.5,217.9 410,218.3 408.1,215.1 "/>
<line class="st15" x1="444.7" y1="289.5" x2="443.5" y2="288.1"/>
<polygon points="445.1,287.8 444.4,289.2 442.9,289.7 446.2,291.3 "/>
<path class="st14" d="M386.2,465.6c0,0-39.4,3-58.4-21.6"/>
<line class="st15" x1="386.9" y1="465.4" x2="385.2" y2="465.6"/>
<polygon points="385.7,464.1 386.5,465.5 386,467 389.2,465.2 "/>
<path d="M482.5,462.4l6.5,17.5h-4l-1.3-3.9h-6.5l-1.4,3.9h-3.8l6.5-17.5H482.5z M482.7,473.1l-2.2-6.4h-0.1l-2.3,6.4H482.7z"/>
<path d="M501.8,467.1c-0.3-0.4-0.5-0.7-0.8-1c-0.3-0.3-0.8-0.5-1.2-0.6c-0.4-0.1-0.9-0.3-1.3-0.3c-0.8,0-1.5,0.1-2.2,0.5
	c-0.6,0.3-1.1,0.8-1.5,1.3c-0.4,0.6-0.6,1.2-0.8,1.9c-0.2,0.7-0.3,1.5-0.3,2.2c0,0.7,0.1,1.5,0.3,2.2c0.1,0.6,0.4,1.3,0.8,1.9
	s0.9,1,1.5,1.3c0.7,0.3,1.4,0.5,2.2,0.5c1,0.1,2.1-0.3,2.8-1.1c0.7-0.8,1.2-1.8,1.2-2.8h3.7c-0.1,1-0.3,2.1-0.8,3
	c-0.4,0.8-1,1.6-1.6,2.2c-0.7,0.6-1.5,1.1-2.4,1.4c-1,0.3-2,0.5-3,0.5c-1.2,0-2.5-0.2-3.6-0.7c-1-0.4-2-1.1-2.7-1.9
	c-0.8-0.8-1.3-1.8-1.7-2.9c-0.4-1.2-0.6-2.4-0.6-3.6c0-1.2,0.2-2.5,0.6-3.7c0.4-1.1,1-2.1,1.7-3c0.8-0.8,1.7-1.5,2.7-2
	c2-0.8,4.3-1,6.4-0.3c0.8,0.3,1.6,0.7,2.3,1.2s1.3,1.2,1.7,2c0.4,0.8,0.8,1.7,0.8,2.7h-3.8C502.2,467.9,502,467.4,501.8,467.1z"/>
<path d="M521.7,478.6c-1.3,1.2-3.1,1.7-5.5,1.7c-2.4,0-4.2-0.6-5.5-1.7c-1.3-1.2-1.9-2.9-1.9-5.3v-10.9h3.8v10.9
	c0,0.4,0.1,1,0.1,1.4s0.3,0.8,0.5,1.2c0.3,0.4,0.6,0.6,1.1,0.8c0.6,0.3,1.2,0.4,1.9,0.3c1.3,0,2.3-0.3,2.8-0.9
	c0.6-0.8,0.8-1.9,0.8-2.9v-10.9h3.8v10.9C523.7,475.7,523,477.4,521.7,478.6z"/>
<path d="M532.4,462.4l4.1,12.1h0.1l3.8-12.1h5.5v17.5h-3.6v-12.4h-0.1l-4.3,12.4h-3l-4.4-12.3h-0.1v12.3h-3.6v-17.5H532.4z"/>
<path d="M562.1,478.6c-1.3,1.2-3.1,1.7-5.5,1.7c-2.3,0-4.2-0.6-5.5-1.7c-1.3-1.2-1.9-2.9-1.9-5.3v-10.9h3.8v10.9
	c0,0.4,0.1,1,0.1,1.4s0.3,0.8,0.5,1.2c0.3,0.4,0.6,0.6,1.1,0.8c0.6,0.3,1.2,0.4,1.9,0.3c1.4,0,2.3-0.3,2.8-0.9
	c0.6-0.8,0.9-1.9,0.8-2.9v-10.9h3.8v10.9C564.1,475.7,563.4,477.4,562.1,478.6z"/>
<path d="M571.3,462.4v14.3h8.5v3.3h-12.4v-17.5L571.3,462.4L571.3,462.4z"/>
<path d="M590.8,462.4l6.5,17.5h-4L592,476h-6.6l-1.3,3.9h-3.8l6.6-17.5H590.8z M590.9,473.1l-2.2-6.4h-0.1l-2.3,6.4H590.9z"/>
<path d="M606.4,462.4c1.1,0,2.1,0.2,3.1,0.5c1,0.3,1.8,0.9,2.5,1.6c0.8,0.8,1.3,1.7,1.7,2.7c0.4,1.2,0.6,2.5,0.6,3.8
	c0,1.2-0.1,2.4-0.5,3.5c-0.3,1-0.8,2-1.5,2.8c-0.7,0.8-1.5,1.4-2.5,1.9c-1.1,0.4-2.3,0.7-3.5,0.7h-7.6v-17.5L606.4,462.4
	L606.4,462.4z M606.1,476.7c0.6,0,1.1-0.1,1.6-0.3c0.5-0.2,1-0.5,1.4-0.9c0.4-0.4,0.8-1,1-1.6c0.3-0.8,0.4-1.6,0.4-2.4
	s-0.1-1.6-0.3-2.4c-0.1-0.6-0.4-1.3-0.8-1.9c-0.4-0.5-1-0.9-1.5-1.2c-0.8-0.3-1.6-0.4-2.4-0.4h-2.8v11L606.1,476.7L606.1,476.7z"/>
<path d="M616.9,467.6c0.4-1.1,1-2.1,1.7-3c0.8-0.8,1.7-1.5,2.7-2c2.3-1,4.9-1,7.2,0c1,0.4,1.9,1.1,2.7,2c0.8,0.8,1.3,1.9,1.7,3
	c0.4,1.2,0.6,2.4,0.6,3.7c0,1.2-0.2,2.4-0.6,3.6c-0.4,1.1-1,2.1-1.7,2.9c-0.8,0.8-1.7,1.5-2.7,1.9c-2.3,1-4.9,1-7.2,0
	c-1-0.4-2-1.1-2.7-1.9c-0.8-0.8-1.3-1.8-1.7-2.9c-0.4-1.2-0.6-2.4-0.6-3.6C616.2,470,616.4,468.8,616.9,467.6z M620.4,473.4
	c0.2,0.6,0.4,1.3,0.8,1.9s0.9,1,1.5,1.3c1.4,0.6,3,0.6,4.4,0c0.6-0.3,1.1-0.8,1.5-1.3c0.4-0.6,0.6-1.2,0.8-1.9
	c0.2-0.7,0.3-1.4,0.3-2.1c0-0.8-0.1-1.5-0.3-2.2c-0.1-0.7-0.4-1.3-0.8-1.9s-0.9-1-1.5-1.3c-1.4-0.7-3-0.7-4.4,0
	c-0.6,0.3-1.1,0.8-1.5,1.3c-0.4,0.6-0.6,1.2-0.8,1.9c-0.2,0.7-0.3,1.5-0.3,2.2C620.1,472,620.2,472.7,620.4,473.4z"/>
<path d="M639.1,475.6c0.2,0.4,0.5,0.7,0.8,1c0.4,0.3,0.8,0.4,1.2,0.6c0.5,0.1,1,0.2,1.5,0.2c0.4,0,0.8,0,1.1-0.1
	c0.4-0.1,0.8-0.2,1.1-0.3c0.3-0.1,0.6-0.4,0.8-0.6c0.3-0.3,0.4-0.7,0.3-1.1c0-0.4-0.1-0.8-0.4-1.2c-0.3-0.3-0.8-0.6-1.2-0.8
	c-0.5-0.2-1.1-0.4-1.7-0.5c-0.6-0.1-1.3-0.3-1.9-0.5c-0.6-0.1-1.3-0.4-1.9-0.6c-0.6-0.2-1.2-0.5-1.7-0.9c-1.1-0.8-1.7-2.1-1.7-3.5
	c0-0.8,0.2-1.6,0.6-2.4c0.4-0.6,0.9-1.2,1.5-1.7c0.6-0.4,1.3-0.8,2.1-1s1.5-0.3,2.4-0.3c0.9,0,1.8,0.1,2.6,0.3s1.5,0.5,2.2,1
	c0.6,0.4,1.2,1,1.5,1.7c0.4,0.8,0.6,1.7,0.6,2.6h-3.7c0-0.4-0.1-0.9-0.3-1.3c-0.2-0.3-0.4-0.6-0.8-0.8c-0.3-0.2-0.7-0.3-1.1-0.4
	c-0.4-0.1-0.8-0.1-1.3-0.1c-0.3,0-0.6,0.1-1,0.1c-0.3,0.1-0.6,0.2-0.8,0.3c-0.3,0.1-0.4,0.4-0.6,0.6c-0.2,0.3-0.3,0.6-0.3,1
	c0,0.3,0.1,0.6,0.2,0.8c0.2,0.3,0.4,0.4,0.8,0.6c0.5,0.3,1,0.4,1.6,0.5l2.7,0.7c0.3,0.1,0.8,0.2,1.3,0.3c0.6,0.2,1.2,0.4,1.7,0.8
	c0.6,0.4,1.1,0.9,1.5,1.5c0.4,0.7,0.6,1.5,0.6,2.4c0,0.8-0.1,1.5-0.4,2.2c-0.3,0.7-0.8,1.3-1.4,1.8c-0.7,0.5-1.5,0.9-2.3,1.2
	c-1,0.3-2.1,0.4-3.1,0.4c-1,0-1.9-0.1-2.8-0.4c-0.8-0.2-1.7-0.6-2.4-1.1c-0.7-0.5-1.3-1.2-1.7-1.9c-0.4-0.9-0.6-1.9-0.6-2.8h3.7
	C638.7,474.7,638.9,475.2,639.1,475.6z"/>
<path d="M367.5,352.8h4.3l4.1,6.9l4-6.9h4.3l-6.5,10.8v6.7H374v-6.8L367.5,352.8z"/>
<path d="M218.7,382l4.1,12.1h0.1l3.8-12.1h5.5v17.5h-3.6v-12.4h-0.1l-4.3,12.4h-3l-4.3-12.3h-0.1v12.3h-3.6V382H218.7z"/>
<path d="M248.7,382v3.2h-9.2v3.8h8.5v3h-8.5v4.3h9.4v3.2h-13.3V382L248.7,382L248.7,382z"/>
<path d="M262.7,386.6c-0.3-0.4-0.5-0.7-0.8-1s-0.8-0.5-1.2-0.6c-0.4-0.1-0.9-0.3-1.3-0.3c-0.8,0-1.5,0.1-2.2,0.5
	c-0.6,0.3-1.1,0.8-1.5,1.3c-0.4,0.6-0.6,1.2-0.8,1.9s-0.3,1.5-0.3,2.2c0,0.7,0.1,1.5,0.3,2.1c0.1,0.6,0.4,1.3,0.8,1.9
	c0.4,0.6,0.9,1,1.5,1.3c0.7,0.4,1.4,0.5,2.2,0.5c1,0.1,2.1-0.3,2.8-1.1s1.1-1.8,1.2-2.8h3.7c-0.1,1-0.3,2.1-0.8,3
	c-0.4,0.8-1,1.6-1.6,2.2c-0.7,0.6-1.5,1.1-2.4,1.4c-1,0.3-2,0.5-3,0.5c-1.2,0-2.5-0.2-3.6-0.7c-1-0.4-2-1.1-2.7-1.9
	c-0.8-0.8-1.3-1.8-1.7-2.9c-0.4-1.2-0.6-2.4-0.6-3.6c0-1.2,0.2-2.5,0.6-3.7c0.4-1.1,1-2.1,1.7-3c0.8-0.8,1.7-1.5,2.7-2
	c1.2-0.5,2.4-0.7,3.6-0.7c0.9,0,1.9,0.1,2.8,0.4c0.8,0.3,1.6,0.7,2.3,1.2c0.7,0.5,1.3,1.2,1.7,2c0.4,0.8,0.8,1.7,0.8,2.7h-3.7
	C263.1,387.5,263,387,262.7,386.6z"/>
<path d="M278.4,382l6.5,17.5h-4l-1.3-3.9h-6.5l-1.3,3.9h-3.8l6.6-17.5H278.4z M278.6,392.7l-2.2-6.4h-0.1l-2.3,6.4H278.6z"/>
<path d="M290.4,382l7.3,11.7h0.1V382h3.6v17.5h-3.8l-7.3-11.7h-0.1v11.7h-3.6V382H290.4z"/>
<path d="M308.6,382v17.5h-3.8V382H308.6z"/>
<path d="M314.9,395.2c0.2,0.4,0.5,0.7,0.8,1c0.4,0.3,0.8,0.4,1.2,0.6c0.5,0.1,1,0.2,1.5,0.2c0.4,0,0.8,0,1.1-0.1
	c0.4-0.1,0.8-0.2,1.1-0.3s0.6-0.4,0.8-0.6c0.3-0.3,0.4-0.7,0.3-1.1c0-0.4-0.1-0.8-0.4-1.2c-0.3-0.3-0.8-0.6-1.2-0.7
	c-0.5-0.2-1.1-0.4-1.7-0.5c-0.6-0.1-1.3-0.3-1.9-0.5c-0.6-0.2-1.3-0.4-1.9-0.6c-0.6-0.2-1.2-0.5-1.7-0.9c-0.5-0.4-0.9-0.8-1.2-1.4
	c-0.3-0.6-0.4-1.3-0.4-2.1c0-0.8,0.2-1.6,0.6-2.4c0.4-0.6,0.9-1.2,1.5-1.7c0.6-0.4,1.3-0.8,2.1-1c0.8-0.2,1.5-0.3,2.4-0.3
	c0.9,0,1.8,0.1,2.6,0.3s1.5,0.5,2.2,1c0.6,0.4,1.2,1,1.5,1.7c0.4,0.8,0.6,1.7,0.6,2.6h-3.7c0-0.4-0.1-0.9-0.3-1.3
	c-0.2-0.3-0.4-0.6-0.8-0.8c-0.3-0.2-0.7-0.3-1.1-0.4c-0.4-0.1-0.9-0.1-1.3-0.1c-0.3,0-0.6,0.1-1,0.1c-0.3,0.1-0.6,0.2-0.8,0.3
	c-0.3,0.2-0.4,0.4-0.6,0.6c-0.2,0.3-0.3,0.6-0.3,1c0,0.3,0.1,0.6,0.2,0.8c0.2,0.3,0.4,0.4,0.8,0.6c0.5,0.3,1,0.4,1.6,0.5
	c0.7,0.2,1.5,0.4,2.6,0.7c0.3,0.1,0.8,0.2,1.3,0.4c0.6,0.2,1.2,0.4,1.7,0.8c0.6,0.4,1.1,0.9,1.5,1.5c0.4,0.7,0.6,1.5,0.6,2.4
	c0,0.8-0.1,1.5-0.4,2.2c-0.3,0.7-0.8,1.3-1.4,1.8c-0.7,0.5-1.5,0.9-2.3,1.2c-1,0.3-2.1,0.4-3.1,0.4c-1,0-1.9-0.1-2.8-0.3
	c-0.8-0.2-1.7-0.6-2.4-1.1c-0.7-0.5-1.3-1.2-1.7-1.9c-0.4-0.9-0.6-1.9-0.6-2.8h3.7C314.6,394.3,314.7,394.7,314.9,395.2z"/>
<path d="M333.3,382l4.1,12.1h0.1l3.8-12.1h5.5v17.5h-3.7v-12.4l0,0l-4.3,12.4h-3l-4.3-12.3h-0.1v12.3H328V382H333.3z"/>
<path d="M350,387.2c0.4-1.1,1-2.1,1.7-3c0.8-0.8,1.7-1.5,2.7-2c2.3-1,4.9-1,7.2,0c1,0.4,1.9,1.2,2.7,2c0.8,0.8,1.3,1.9,1.7,3
	c0.4,1.2,0.6,2.4,0.6,3.7s-0.2,2.4-0.6,3.6c-0.4,1.1-1,2.1-1.7,2.9c-0.8,0.8-1.7,1.5-2.7,1.9c-2.3,1-4.9,1-7.2,0
	c-1-0.4-2-1.1-2.7-1.9c-0.8-0.8-1.3-1.8-1.7-2.9c-0.4-1.2-0.6-2.4-0.6-3.6C349.4,389.6,349.6,388.4,350,387.2z M353.6,393
	c0.2,0.6,0.4,1.3,0.8,1.9c0.4,0.6,0.9,1,1.5,1.3c1.4,0.7,3,0.7,4.4,0c0.6-0.3,1.1-0.8,1.5-1.3c0.4-0.6,0.6-1.2,0.8-1.9
	c0.2-0.7,0.3-1.4,0.3-2.1c0-0.8-0.1-1.5-0.3-2.2c-0.1-0.7-0.4-1.3-0.8-1.9c-0.4-0.6-0.9-1-1.5-1.3c-1.4-0.6-3-0.6-4.4,0
	c-0.6,0.3-1.1,0.8-1.5,1.3c-0.4,0.6-0.6,1.2-0.8,1.9c-0.2,0.7-0.3,1.5-0.3,2.2C353.3,391.5,353.4,392.3,353.6,393L353.6,393z"/>
<path d="M372.2,395.2c0.2,0.4,0.5,0.7,0.8,1c0.4,0.3,0.8,0.4,1.2,0.6c0.5,0.1,1,0.2,1.5,0.2c0.4,0,0.8,0,1.1-0.1
	c0.4-0.1,0.8-0.2,1.1-0.3s0.6-0.4,0.8-0.6c0.3-0.3,0.4-0.7,0.3-1.1c0-0.4-0.1-0.8-0.4-1.2c-0.3-0.3-0.8-0.6-1.2-0.7
	c-0.5-0.2-1.1-0.4-1.7-0.5c-0.6-0.1-1.3-0.3-1.9-0.5c-0.6-0.2-1.3-0.4-1.9-0.6c-0.6-0.2-1.2-0.5-1.7-0.9c-0.5-0.4-0.9-0.8-1.2-1.4
	c-0.3-0.6-0.4-1.3-0.4-2.1c0-0.8,0.2-1.6,0.6-2.4c0.4-0.6,0.9-1.2,1.5-1.7c0.6-0.4,1.3-0.8,2.1-1s1.5-0.3,2.4-0.3
	c0.9,0,1.8,0.1,2.6,0.3c0.8,0.2,1.5,0.5,2.2,1c0.6,0.4,1.2,1,1.5,1.7c0.4,0.8,0.6,1.7,0.6,2.6h-3.7c0-0.4-0.1-0.9-0.3-1.3
	c-0.2-0.3-0.4-0.6-0.8-0.8c-0.3-0.2-0.7-0.3-1.1-0.4c-0.4-0.1-0.8-0.1-1.3-0.1c-0.3,0-0.6,0.1-1,0.1c-0.3,0.1-0.6,0.2-0.8,0.3
	c-0.3,0.2-0.4,0.4-0.6,0.6c-0.2,0.3-0.3,0.6-0.3,1c0,0.3,0.1,0.6,0.2,0.8c0.2,0.3,0.4,0.4,0.8,0.6c0.5,0.3,1,0.4,1.6,0.5
	c0.7,0.2,1.5,0.4,2.7,0.7c0.3,0.1,0.8,0.2,1.3,0.4c0.6,0.2,1.2,0.4,1.7,0.8c0.6,0.4,1.1,0.9,1.5,1.5c0.4,0.7,0.6,1.5,0.6,2.4
	c0,0.8-0.1,1.5-0.4,2.2c-0.3,0.7-0.8,1.3-1.4,1.8c-0.7,0.5-1.5,0.9-2.3,1.2c-1,0.3-2.1,0.4-3.1,0.4c-1,0-1.9-0.1-2.8-0.3
	c-0.8-0.2-1.7-0.6-2.4-1.1c-0.7-0.5-1.3-1.2-1.7-1.9c-0.4-0.9-0.6-1.9-0.6-2.8h3.7C371.9,394.2,372,394.7,372.2,395.2z"/>
<path class="st19" d="M364.3,408.1l4,3c2.9,2.2,6.3,3.6,9.9,4.2l8.5,1.3"/>
<line class="st15" x1="387" y1="416.6" x2="385.4" y2="416"/>
<polygon points="386.5,414.9 386.5,416.4 385.5,417.6 389.2,417.4 "/>
<path class="st19" d="M391.9,395.5l4.6,2.4c3.2,1.7,6.9,2.5,10.5,2.2l8.6-0.5"/>
<line class="st15" x1="415.8" y1="399.7" x2="414.1" y2="399.4"/>
<polygon points="414.9,398.1 415.3,399.6 414.5,400.9 418,400.1 "/>
<path class="st19" d="M266.7,376.2l-2.5-2.1c-1.8-1.5-3.8-2.6-6.1-3.1l-13.9-3.3"/>
<line class="st15" x1="244.1" y1="367.7" x2="245.7" y2="368.2"/>
<polygon points="244.6,369.3 244.5,367.9 245.5,366.7 241.9,366.9 "/>
<path class="st19" d="M295.9,375.1l7.3-2.2c1.2-0.3,2.4-0.5,3.6-0.4l1.1,0.1c1.8,0.1,3.6-0.3,5.2-1.1l7.1-3.3"/>
<line class="st15" x1="319.6" y1="368.3" x2="319.1" y2="368.4"/>
<polygon points="318.1,367.2 319.1,368.4 318.9,370 321.7,367.7 "/>
<path class="st17" d="M62.8,211.6c0,0-1.5-3,5.1-3s3,12.4,3,12.4c6.6-4.4,12.4,3.7,12.4,3.7C95,224,89.2,235,89.2,235
	c5.1-0.7,5.8,3.7,5.8,3.7c7.3-3,8.1,5.1,8.1,5.1c4.4,1.5,3,7.3,3,7.3c4.4-7.3,12.4,4.4,12.4,4.4c13.9-5.1,4.4,10.3,4.4,10.3
	c-1.5,1.5,3,3,3,3c9.5-1.5,8.8,9.5,8.8,9.5c3.7-2.2,6.6,2.2,6.6,2.2c2.2,5.8,10.3,4.4,10.3,4.4c8.8-2.2,3.7,8,3.7,8
	c-1.5,3.7,2.2,2.2,2.2,2.2c12.4-15.4,16.8,3,16.8,3c14.6-9.5,18.3,10.3,18.3,10.3c-1.5,8,5.8,5.8,5.8,5.8c4.4-16.8,8.8,0,8.8,0
	c0,1.5,2.2,0,2.2,0c8-6.6,13.9,11.7,13.9,11.7c1.5,5.1,4.4,3.7,4.4,3.7c0.1-2.3,1.2-4.4,3-5.8c5.1-3,7.3,3.7,7.3,3.7
	c6.6-8,13.9,0,13.9,0c8,5.1,11.7-0.7,11.7-0.7c21.9-20.6,30.7,10.8,30.7,10.8c9.5-0.7,1.5,16.1,1.5,16.1s5.9-3,5.9,3.9"/>
<path class="st18" d="M356,355.3c-3-4,4.5-3.7,4.5-3.7s-12.4-11.7,3.7-17.6c0,0,3.7-5.1,11.7-3.7c0,0,0.7-11,13.1-4.4
	c0,0,7.3,3,9.5-3.7c0,0,0-8,12.4-5.8c0,0,5.1-0.8,5.1-7.3c0,0-1.5-13.9,15.3-8c0,0,5.1-2.2,0-7.3c0,0-2.2-14.6,14.6-11.7
	c0,0,5.8-3,2.2-6.6c0,0-5.8-9.5,7.3-13.1c0,0,2.2-16.8,20.5-19.8c0,0,21.2-39.5,40.2-62.2c0,0,3-16.1,7.3-3c0,0,4.4-9.5,9.5-3
	c0,0,2.2-14.6,8-17.6c0,0-3-8.8,10.3-31.4c0,0,11.5-38.7,30-26.3c2.2,1.5,3.7,0,3.7,0c0-0.2,0.1-0.4,0.1-0.6
	c1.5-6.5,10.5-7.3,13.3-1.3l10.1,21.4c3.6,7.6,8.9,14.4,15.7,19.6l0,0c5.1,4,9.2,8.9,12.2,14.6l9.2,17.8c0.1,0.3,0.3,0.5,0.4,0.8
	l27.6,46.3l33.6,38.4c14.3,16.4,64,45.9,70.4,56.4"/>
<path class="st0" d="M281.3,166.3l3.9,4.5l0.6,0.6c0.2,0.3,0.6-0.1,0.3-0.3l-3.9-4.5l-0.6-0.6C281.5,165.7,281.1,166.1,281.3,166.3z
	"/>
<path class="st0" d="M289.7,155.4l3.3,3.9l0.5,0.6c0.2,0.3,0.6-0.1,0.3-0.3l-3.4-3.9l-0.5-0.6C289.9,154.8,289.5,155.2,289.7,155.4
	L289.7,155.4z"/>
<path class="st0" d="M303.8,158l2.8,3.4l0.4,0.4c0.2,0.3,0.5-0.1,0.3-0.3l-2.8-3.4l-0.4-0.4C304,157.4,303.7,157.7,303.8,158z"/>
<path class="st0" d="M325.6,148.9l3.9,4.5l0.6,0.6c0.2,0.3,0.5-0.1,0.3-0.3l-3.9-4.5l-0.6-0.6C325.7,148.3,325.4,148.6,325.6,148.9
	L325.6,148.9z"/>
<path class="st0" d="M327.8,164.6l3.3,3.9l0.5,0.6c0.2,0.3,0.5-0.1,0.3-0.3l-3.3-3.9l-0.5-0.6C328,164,327.6,164.3,327.8,164.6
	L327.8,164.6z"/>
<path class="st0" d="M325.9,174.2l3.3,3.9l0.5,0.6c0.2,0.3,0.5-0.1,0.3-0.3l-3.3-3.9l-0.5-0.6C326,173.6,325.7,174,325.9,174.2
	L325.9,174.2z"/>
<path class="st0" d="M354.5,139.6l3.3,3.9l0.5,0.6c0.2,0.3,0.5-0.1,0.3-0.3l-3.3-3.9l-0.5-0.6C354.6,139,354.3,139.3,354.5,139.6z"
	/>
<path class="st0" d="M341,144.7l3.3,3.9l0.5,0.6c0.2,0.3,0.5-0.1,0.3-0.3l-3.3-3.9l-0.5-0.6C341.2,144.1,340.8,144.4,341,144.7z"/>
<path class="st0" d="M359.9,174.5l3.9,4.5l0.6,0.6c0.2,0.3,0.5-0.1,0.3-0.3l-3.9-4.5l-0.6-0.6C360.1,174,359.7,174.3,359.9,174.5z"
	/>
<path class="st0" d="M350.2,199.9l3.9,4.5l0.6,0.6c0.2,0.3,0.5-0.1,0.3-0.3l-3.9-4.5l-0.6-0.6C350.3,199.4,350,199.7,350.2,199.9z"
	/>
<path class="st0" d="M365.5,158.2l3.9,4.5l0.6,0.6c0.2,0.3,0.5-0.1,0.3-0.3l-3.9-4.5l-0.6-0.6C365.7,157.7,365.4,158,365.5,158.2z"
	/>
<path class="st0" d="M388.8,208.5l3.3,3.9l0.5,0.6c0.2,0.3,0.5-0.1,0.3-0.3l-3.3-3.9l-0.5-0.6C389,207.9,388.6,208.2,388.8,208.5z"
	/>
<path class="st0" d="M242.9,156.6l3.9,4.5l0.6,0.6c0.2,0.3,0.6-0.1,0.3-0.3l-3.9-4.5l-0.6-0.6C243,156.1,242.7,156.4,242.9,156.6z"
	/>
<path class="st0" d="M290.8,89.6c0,0-88.9-0.3-94.7,9.9c0,0-5.1,3-0.7,7.3c0,0,0.7,5.1-15.4,3.7c0,0-15.9-1.3-4.9,2.4
	c0,0-45.5-1.5-24.2,7.3c0,0-24.4,7.1,13.7,10.8c0,0,115.3,19.4,222.5,6.2c11.5,2.8,68.3,3.5,72.2-1.2c2-2.4,4.7-4.2,7.8-4.2
	c16.6,0.1,38.4-0.8,25.7-7.1c-3.2-1.5,18.3-2.2,13.9-4.4c0,0,6.6-5.8-7.3-8c-12.4-1-24.8-3.1-36.8-6.1c0,0-58-5.8-105.7-5.1
	c0,0-26.6-1.6-25.6-4.2c1.1-3-14.2-2.4-17.2-3.4C309.7,91.9,302.5,90.5,290.8,89.6z"/>
<path d="M194.9,112.4h3.8l7,12.3v-12.3h3.5v17.7h-3.7l-7.2-12.6v12.6h-3.5L194.9,112.4z"/>
<path d="M212.7,112.4h3.8v10.8c-0.1,0.9,0.1,1.8,0.4,2.6c0.4,1,1.4,1.5,2.9,1.5c1.5,0,2.4-0.5,2.9-1.5c0.3-0.8,0.5-1.7,0.4-2.6
	v-10.8h3.8v10.8c0.1,1.5-0.2,3-0.9,4.4c-1.1,1.9-3.1,2.9-6.2,2.9s-5.1-1-6.2-2.9c-0.6-1.3-1-2.9-0.9-4.4V112.4z"/>
<path d="M243.5,115.6h-9.4v3.7h8.6v3.1h-8.6v4.6h9.7v3.2h-13.4v-17.7h13L243.5,115.6L243.5,115.6z"/>
<path d="M257.2,112.4h3.8l-6,17.7h-3.5l-6-17.7h3.9l3.8,13.4L257.2,112.4z"/>
<path d="M276.8,128.5c-1.3,1.3-3.3,2.1-5.8,2.1s-4.4-0.7-5.8-2.1c-1.8-1.7-2.7-4.1-2.7-7.3s0.9-5.6,2.7-7.3c1.3-1.3,3.3-2.1,5.8-2.1
	s4.4,0.7,5.8,2.1c1.8,1.6,2.7,4,2.7,7.3C279.5,124.5,278.6,126.9,276.8,128.5z M274.5,125.8c0.8-1.1,1.3-2.6,1.3-4.6
	s-0.4-3.5-1.3-4.6c-0.8-1.1-2.1-1.7-3.5-1.6c-1.3-0.1-2.6,0.6-3.5,1.6c-0.9,1.1-1.3,2.6-1.3,4.6s0.4,3.5,1.3,4.6
	c0.8,1.1,2.1,1.7,3.5,1.6C272.4,127.5,273.7,126.9,274.5,125.8z"/>
<path d="M285,124.6c0.1,0.6,0.3,1.3,0.6,1.8c0.6,0.7,1.7,1.1,3.1,1.1c0.7,0,1.5-0.1,2.2-0.3c1-0.2,1.6-1.1,1.6-2.1
	c0-0.6-0.3-1.1-0.8-1.3c-0.8-0.4-1.6-0.7-2.4-0.8l-1.9-0.4c-1.3-0.3-2.6-0.7-3.8-1.3c-1.2-0.8-1.8-2.1-1.8-3.8c0-1.5,0.6-3,1.7-3.9
	c1.2-1,2.9-1.5,5.1-1.5c1.7-0.1,3.4,0.4,4.8,1.5c1.3,1,2.1,2.6,2.1,4.3H292c0-1-0.6-1.8-1.5-2.2c-0.7-0.3-1.4-0.4-2.2-0.4
	c-0.8-0.1-1.6,0.2-2.3,0.6c-0.6,0.3-0.9,1-0.9,1.6c0,0.6,0.3,1.2,0.8,1.4c0.8,0.3,1.5,0.6,2.4,0.7l3.1,0.7c1.1,0.2,2.1,0.6,3.1,1.3
	c1.1,0.9,1.7,2.2,1.6,3.6c0,1.5-0.6,3-1.9,4c-1.3,1.1-3,1.6-5.3,1.6s-4.2-0.5-5.5-1.6c-1.3-1-2.1-2.6-2-4.4L285,124.6z"/>
<path d="M318.6,115.6h-9.4v3.7h8.6v3.1h-8.6v4.6h9.7v3.2h-13.4v-17.7h13L318.6,115.6L318.6,115.6z"/>
<path d="M324.6,124.6c0.1,0.6,0.3,1.3,0.6,1.8c0.6,0.7,1.7,1.1,3.1,1.1c0.7,0,1.5-0.1,2.2-0.3c1-0.2,1.6-1.1,1.6-2.1
	c0-0.6-0.3-1.1-0.8-1.3c-0.8-0.4-1.6-0.7-2.4-0.8l-1.9-0.4c-1.3-0.3-2.6-0.7-3.8-1.3c-1.2-0.8-1.8-2.1-1.8-3.8c0-1.5,0.6-3,1.7-3.9
	c1.2-1,2.9-1.5,5.1-1.5c1.7-0.1,3.4,0.4,4.8,1.5c1.3,1,2.1,2.6,2.1,4.3h-3.5c0-1-0.6-1.9-1.4-2.2c-0.7-0.3-1.4-0.4-2.2-0.4
	c-0.8-0.1-1.6,0.2-2.3,0.6c-0.6,0.3-0.9,1-0.9,1.6c0,0.6,0.3,1.2,0.8,1.4c0.8,0.3,1.5,0.6,2.3,0.8l3.1,0.7c1.1,0.2,2.1,0.6,3.1,1.3
	c1.1,0.9,1.7,2.2,1.6,3.6c0,1.5-0.6,3-1.9,4c-1.3,1.1-3,1.6-5.3,1.6s-4.2-0.5-5.5-1.6c-1.3-1-2.1-2.6-2-4.4L324.6,124.6z"/>
<path d="M340,114.3c1.4-1.5,3.4-2.2,5.5-2.2c3,0,5.1,1,6.5,3c0.7,1,1.2,2.1,1.2,3.3h-3.7c-0.2-0.7-0.4-1.3-0.9-1.9
	c-1.6-1.5-4.1-1.5-5.6,0.1c-0.1,0.1-0.3,0.3-0.4,0.4c-0.8,1.1-1.2,2.6-1.2,4.6s0.4,3.5,1.2,4.5c0.7,1,1.9,1.5,3.1,1.5
	c1.1,0.1,2.2-0.4,2.9-1.3c0.4-0.6,0.8-1.3,0.9-2.1h3.7c-0.3,1.8-1.1,3.5-2.4,4.7c-1.3,1.2-3.1,1.9-5,1.8c-2.2,0.1-4.4-0.8-5.9-2.4
	c-1.4-1.7-2.2-3.9-2.2-6.7C337.5,118.3,338.4,116,340,114.3z"/>
<path d="M369.1,115.6h-9.4v3.7h8.6v3.1h-8.6v4.6h9.7v3.2h-13.4v-17.7h13L369.1,115.6L369.1,115.6z"/>
<path d="M372.3,112.4h3.8l7,12.3v-12.3h3.5v17.7h-3.7l-7.2-12.6v12.6h-3.4V112.4z"/>
<path d="M395.2,112.4h4.2l6.3,17.7h-4l-1.2-3.7H394l-1.2,3.7h-3.8L395.2,112.4z M394.9,123.4h4.6l-2.2-6.9L394.9,123.4z"/>
<path d="M419.2,112.9c0.6,0.3,1.2,0.7,1.7,1.2c0.4,0.4,0.6,1,0.9,1.5c0.3,0.6,0.3,1.2,0.3,1.9c0,0.8-0.3,1.7-0.6,2.5
	c-0.4,0.8-1.2,1.5-2.1,1.7c0.7,0.3,1.3,0.8,1.7,1.4c0.4,0.8,0.6,1.8,0.5,2.8v1.2c0,0.6,0,1.1,0.1,1.7c0.1,0.4,0.3,0.8,0.7,1v0.4h-4
	c-0.1-0.4-0.2-0.7-0.3-1c-0.1-0.5-0.1-1-0.1-1.5V126c0-1.2-0.2-1.9-0.6-2.2c-0.6-0.4-1.3-0.6-2.1-0.6h-3.6v6.9h-3.7v-17.6h8.5
	C417.4,112.4,418.3,112.6,419.2,112.9z M411.5,115.5v4.7h4c0.6,0.1,1.2-0.1,1.8-0.3c0.7-0.4,1.2-1.2,1-2c0-1.1-0.3-1.8-1-2.2
	c-0.5-0.3-1.2-0.3-1.7-0.3L411.5,115.5L411.5,115.5z"/>
<path d="M429,130.1h-3.7v-17.7h3.7V130.1z"/>
<path d="M446,128.5c-1.3,1.3-3.3,2.1-5.8,2.1s-4.4-0.7-5.8-2.1c-1.8-1.7-2.7-4.1-2.7-7.3s0.9-5.6,2.7-7.3c1.3-1.3,3.3-2.1,5.8-2.1
	s4.4,0.7,5.8,2.1c1.8,1.6,2.7,4,2.7,7.3C448.7,124.5,447.8,126.9,446,128.5z M443.7,125.8c0.8-1.1,1.3-2.6,1.3-4.6s-0.4-3.5-1.3-4.6
	c-0.8-1.1-2.1-1.7-3.5-1.6c-1.3-0.1-2.6,0.6-3.5,1.6c-0.9,1.1-1.3,2.6-1.3,4.6s0.4,3.5,1.3,4.6c0.8,1.1,2.1,1.7,3.5,1.6
	C441.6,127.5,442.9,126.9,443.7,125.8L443.7,125.8z"/>
<path d="M454.2,124.6c0.1,0.6,0.3,1.3,0.6,1.8c0.6,0.7,1.7,1.1,3.1,1.1c0.7,0,1.5-0.1,2.2-0.3c1-0.2,1.6-1.1,1.6-2.1
	c0-0.6-0.3-1.1-0.8-1.3c-0.8-0.4-1.6-0.7-2.4-0.8l-1.9-0.4c-1.3-0.3-2.6-0.7-3.8-1.3c-1.2-0.8-1.8-2.1-1.8-3.8c0-1.5,0.6-3,1.7-3.9
	c1.2-1,2.9-1.5,5.1-1.5c1.7-0.1,3.4,0.4,4.8,1.5c1.3,1,2.1,2.6,2.1,4.3h-3.6c0-1-0.6-1.9-1.4-2.2c-0.7-0.3-1.4-0.4-2.2-0.4
	c-0.8-0.1-1.6,0.2-2.3,0.6c-0.6,0.3-0.9,1-0.9,1.6c0,0.6,0.3,1.2,0.8,1.4c0.8,0.3,1.5,0.6,2.4,0.7l3.1,0.7c1.1,0.2,2.1,0.6,3.1,1.3
	c1.1,0.9,1.7,2.2,1.6,3.6c0,1.5-0.6,3-1.9,4c-1.3,1.1-3,1.6-5.3,1.6s-4.2-0.5-5.5-1.6c-1.3-1-2.1-2.6-2-4.4L454.2,124.6z"/>
<path class="st14" d="M278.4,135.5c0.9,3.7,6.8,23.9,26.7,14.4c0,0,7-4.6,12.9,1.2"/>
<line class="st15" x1="318.7" y1="151.6" x2="317.1" y2="149.9"/>
<polygon points="319,149.8 318.3,151.2 316.9,151.8 320.3,153.3 "/>
<path class="st0" d="M393.9,178.3l3.3,3.9l0.5,0.6c0.2,0.3,0.5-0.1,0.3-0.3l-3.3-3.9l-0.5-0.6C394,177.7,393.7,178.1,393.9,178.3z"
	/>
<path class="st20" d="M444.1,289c0,0-34.6-27.6-35.5-70.4"/>
<path class="st21" d="M658.4,101.9c0,0-27.8-0.3-29.6,9.9c0,0-1.6,3-0.3,7.3c0,0,0.3,5.1-4.8,3.7c0,0-16.3-1.5-12.8,2.2
	c0,0-14.2-1.5-7.6,7.3c0,0,3.7,7.3,15.6,11c0,0,36,19.4,69.6,6.2c3.6,2.8,21.4,3.5,22.6-1.2c0.6-2.5,1.5-4.2,2.4-4.2
	c5.2,0.1,12.1-0.8,8-7.1c-1-1.5,5.7-2.2,4.4-4.4c0,0,2.1-5.8-2.3-8c0,0-5.1-1-11.5-6.2c0,0-18.2-5.8-33-5.1c0,0-8.3-1.6-8-4.2
	c0.3-3-4.4-2.4-5.4-3.5C664.3,104.2,662,102.8,658.4,101.9z"/>
<line class="st12" x1="157.1" y1="-23.7" x2="454.8" y2="82.1"/>
<polygon points="469.5,344.9 470.6,343.8 472.1,343.8 469.5,341.2 "/>
</svg>
